<svg xmlns="http://www.w3.org/2000/svg" viewBox="0 0 400 400" role="img" aria-hidden="true">
  <!-- 第三格：開心的事（與人相聚/通話） -->
  <rect width="400" height="400" fill="#fff0f3"/>
  <rect y="300" width="400" height="100" fill="#f6d9b8"/>
  <!-- 愛心氣氛 -->
  <path d="M200 70 c-14 -22 -50 -12 -50 14 c0 22 34 38 50 52 c16 -14 50 -30 50 -52 c0 -26 -36 -36 -50 -14z" fill="#ff6b81"/>
  <!-- 長輩 -->
  <circle cx="140" cy="235" r="30" fill="#f7d4ab"/>
  <path d="M112 232 a28 28 0 0 1 56 0z" fill="#cfcfcf"/>
  <circle cx="132" cy="235" r="4" fill="#2a2118"/>
  <circle cx="150" cy="235" r="4" fill="#2a2118"/>
  <path d="M130 246 q11 12 22 0" fill="none" stroke="#7a4a2a" stroke-width="5" stroke-linecap="round"/>
  <rect x="118" y="268" width="44" height="60" rx="16" fill="#4a90d9"/>
  <!-- 手機 -->
  <rect x="176" y="220" width="26" height="46" rx="6" fill="#333"/>
  <rect x="180" y="226" width="18" height="30" rx="2" fill="#bfe6ff"/>
  <!-- 對方（孫子） -->
  <circle cx="280" cy="235" r="26" fill="#f7d4ab"/>
  <path d="M256 230 a24 24 0 0 1 48 0z" fill="#3a2a1c"/>
  <circle cx="272" cy="236" r="3.5" fill="#2a2118"/>
  <circle cx="288" cy="236" r="3.5" fill="#2a2118"/>
  <path d="M270 246 q10 9 20 0" fill="none" stroke="#7a4a2a" stroke-width="4" stroke-linecap="round"/>
  <rect x="262" y="264" width="36" height="60" rx="14" fill="#7ac77a"/>
</svg>
